<svg width="60" height="60" viewBox="0 0 60 60" fill="none" xmlns="http://www.w3.org/2000/svg">
<path d="M6.15991 24.54V35.46C6.15991 37.44 7.77991 39.05 9.75991 39.05H18.6199L32.4499 52.04C32.6399 52.22 32.8899 52.31 33.1399 52.31C33.2699 52.31 33.4099 52.28 33.5399 52.23C33.8999 52.07 34.1399 51.71 34.1399 51.31V8.69002C34.1399 8.29002 33.8999 7.93002 33.5399 7.77002C33.1699 7.62002 32.7499 7.69002 32.4499 7.96002L18.6199 20.95H9.75991C7.77991 20.95 6.15991 22.56 6.15991 24.54Z" fill="black"/>
<path d="M40.0899 30C40.0899 26.19 38.6399 22.55 36.1399 19.75V40.25C38.6399 37.45 40.0899 33.81 40.0899 30Z" fill="black"/>
</svg>
