<!-- icon666.com - MILLIONS vector ICONS FREE --><svg id="Layer_1" enable-background="new 0 0 60 60" viewBox="0 0 60 60" xmlns="http://www.w3.org/2000/svg"><path d="m53.54 24.27c-.39-.39-1.02-.39-1.41 0l-4.31 4.31-4.31-4.31c-.39-.39-1.02-.39-1.41 0s-.39 1.02 0 1.41l4.3 4.32-4.31 4.31c-.39.39-.39 1.02 0 1.41.2.2.45.29.71.29s.51-.1.71-.29l4.31-4.31 4.31 4.31c.2.2.45.29.71.29s.51-.1.71-.29c.39-.39.39-1.02 0-1.41l-4.32-4.31 4.31-4.31c.39-.39.39-1.03 0-1.42z"></path><path d="m6.16 24.54v10.92c0 1.98 1.62 3.59 3.6 3.59h8.86l13.83 12.99c.19.18.44.27.69.27.13 0 .27-.03.4-.08.36-.16.6-.52.6-.92v-42.62c0-.4-.24-.76-.6-.92-.37-.15-.79-.08-1.09.19l-13.83 12.99h-8.86c-1.98 0-3.6 1.61-3.6 3.59z"></path><path d="m40.09 30c0-3.81-1.45-7.45-3.95-10.25v20.5c2.5-2.8 3.95-6.44 3.95-10.25z"></path></svg>